<mxfile host="app.diagrams.net" modified="2024-03-11T10:35:54.199Z" agent="Mozilla/5.0 (Windows NT 10.0; Win64; x64) AppleWebKit/537.36 (KHTML, like Gecko) Chrome/122.0.0.0 Safari/537.36" etag="A_78Ay7__STFjP4V7iMY" version="24.0.4" type="device">
  <diagram name="Page-1" id="-fFAqIUQ91fFFsZdfwbE">
    <mxGraphModel dx="570" dy="589" grid="1" gridSize="10" guides="1" tooltips="1" connect="1" arrows="1" fold="1" page="1" pageScale="1" pageWidth="850" pageHeight="1100" math="0" shadow="0">
      <root>
        <mxCell id="0" />
        <mxCell id="1" parent="0" />
        <mxCell id="VUDHwcCzOZzVsnuF_TF4-3" value="Sleep better website" style="swimlane;whiteSpace=wrap;html=1;" vertex="1" parent="1">
          <mxGeometry x="250" y="260" width="230" height="410" as="geometry" />
        </mxCell>
        <mxCell id="VUDHwcCzOZzVsnuF_TF4-11" value="&lt;font style=&quot;font-size: 10px;&quot;&gt;login&lt;/font&gt;" style="ellipse;whiteSpace=wrap;html=1;" vertex="1" parent="VUDHwcCzOZzVsnuF_TF4-3">
          <mxGeometry x="20" y="30" width="70" height="40" as="geometry" />
        </mxCell>
        <mxCell id="VUDHwcCzOZzVsnuF_TF4-12" value="&lt;font style=&quot;font-size: 10px;&quot;&gt;verify customer&lt;/font&gt;" style="ellipse;whiteSpace=wrap;html=1;" vertex="1" parent="VUDHwcCzOZzVsnuF_TF4-3">
          <mxGeometry x="150" y="30" width="70" height="40" as="geometry" />
        </mxCell>
        <mxCell id="VUDHwcCzOZzVsnuF_TF4-13" style="rounded=0;orthogonalLoop=1;jettySize=auto;html=1;exitX=1;exitY=0.5;exitDx=0;exitDy=0;entryX=0;entryY=0.5;entryDx=0;entryDy=0;" edge="1" parent="VUDHwcCzOZzVsnuF_TF4-3" source="VUDHwcCzOZzVsnuF_TF4-11" target="VUDHwcCzOZzVsnuF_TF4-12">
          <mxGeometry relative="1" as="geometry">
            <mxPoint x="100.28" y="90" as="sourcePoint" />
            <mxPoint x="150.00000000000003" y="63.520000000000095" as="targetPoint" />
          </mxGeometry>
        </mxCell>
        <mxCell id="VUDHwcCzOZzVsnuF_TF4-14" value="&lt;font style=&quot;font-size: 8px;&quot;&gt;&amp;lt;&amp;lt;include&amp;gt;&amp;gt;&lt;/font&gt;" style="edgeLabel;html=1;align=center;verticalAlign=middle;resizable=0;points=[];" vertex="1" connectable="0" parent="VUDHwcCzOZzVsnuF_TF4-13">
          <mxGeometry x="-0.2362" y="1" relative="1" as="geometry">
            <mxPoint as="offset" />
          </mxGeometry>
        </mxCell>
        <mxCell id="VUDHwcCzOZzVsnuF_TF4-22" style="edgeStyle=orthogonalEdgeStyle;rounded=0;orthogonalLoop=1;jettySize=auto;html=1;entryX=0.5;entryY=1;entryDx=0;entryDy=0;" edge="1" parent="VUDHwcCzOZzVsnuF_TF4-3" source="VUDHwcCzOZzVsnuF_TF4-17" target="VUDHwcCzOZzVsnuF_TF4-21">
          <mxGeometry relative="1" as="geometry" />
        </mxCell>
        <mxCell id="VUDHwcCzOZzVsnuF_TF4-17" value="&lt;font style=&quot;font-size: 10px;&quot;&gt;add/remove products to cart&lt;/font&gt;" style="ellipse;whiteSpace=wrap;html=1;" vertex="1" parent="VUDHwcCzOZzVsnuF_TF4-3">
          <mxGeometry x="20" y="200" width="70" height="45" as="geometry" />
        </mxCell>
        <mxCell id="VUDHwcCzOZzVsnuF_TF4-23" style="edgeStyle=orthogonalEdgeStyle;rounded=0;orthogonalLoop=1;jettySize=auto;html=1;entryX=0.5;entryY=1;entryDx=0;entryDy=0;" edge="1" parent="VUDHwcCzOZzVsnuF_TF4-3" source="VUDHwcCzOZzVsnuF_TF4-19" target="VUDHwcCzOZzVsnuF_TF4-21">
          <mxGeometry relative="1" as="geometry" />
        </mxCell>
        <mxCell id="VUDHwcCzOZzVsnuF_TF4-19" value="&lt;span style=&quot;font-size: 10px;&quot;&gt;edit cart&lt;/span&gt;" style="ellipse;whiteSpace=wrap;html=1;" vertex="1" parent="VUDHwcCzOZzVsnuF_TF4-3">
          <mxGeometry x="100" y="200" width="70" height="45" as="geometry" />
        </mxCell>
        <mxCell id="VUDHwcCzOZzVsnuF_TF4-21" value="&lt;font style=&quot;font-size: 10px;&quot;&gt;view cart&lt;/font&gt;" style="ellipse;whiteSpace=wrap;html=1;" vertex="1" parent="VUDHwcCzOZzVsnuF_TF4-3">
          <mxGeometry x="60" y="130" width="70" height="40" as="geometry" />
        </mxCell>
        <mxCell id="VUDHwcCzOZzVsnuF_TF4-25" value="&lt;font style=&quot;font-size: 10px;&quot;&gt;search products&lt;/font&gt;" style="ellipse;whiteSpace=wrap;html=1;" vertex="1" parent="VUDHwcCzOZzVsnuF_TF4-3">
          <mxGeometry x="20" y="80" width="70" height="40" as="geometry" />
        </mxCell>
        <mxCell id="VUDHwcCzOZzVsnuF_TF4-27" value="&lt;span style=&quot;font-size: 10px;&quot;&gt;pay for products in cart&lt;/span&gt;" style="ellipse;whiteSpace=wrap;html=1;" vertex="1" parent="VUDHwcCzOZzVsnuF_TF4-3">
          <mxGeometry x="50" y="258" width="70" height="45" as="geometry" />
        </mxCell>
        <mxCell id="VUDHwcCzOZzVsnuF_TF4-31" value="&lt;span style=&quot;font-size: 10px;&quot;&gt;digital receipt&lt;/span&gt;" style="ellipse;whiteSpace=wrap;html=1;" vertex="1" parent="VUDHwcCzOZzVsnuF_TF4-3">
          <mxGeometry x="50" y="310" width="70" height="45" as="geometry" />
        </mxCell>
        <mxCell id="VUDHwcCzOZzVsnuF_TF4-36" style="rounded=0;orthogonalLoop=1;jettySize=auto;html=1;exitX=0;exitY=0.5;exitDx=0;exitDy=0;entryX=1;entryY=0.5;entryDx=0;entryDy=0;" edge="1" parent="VUDHwcCzOZzVsnuF_TF4-3" source="VUDHwcCzOZzVsnuF_TF4-33" target="VUDHwcCzOZzVsnuF_TF4-25">
          <mxGeometry relative="1" as="geometry">
            <mxPoint x="170" y="99.87" as="sourcePoint" />
            <mxPoint x="110" y="99.87" as="targetPoint" />
          </mxGeometry>
        </mxCell>
        <mxCell id="VUDHwcCzOZzVsnuF_TF4-38" value="&lt;font style=&quot;font-size: 8px;&quot;&gt;&amp;lt;&amp;lt;exclude&amp;gt;&amp;gt;&lt;/font&gt;" style="edgeLabel;html=1;align=center;verticalAlign=middle;resizable=0;points=[];" vertex="1" connectable="0" parent="VUDHwcCzOZzVsnuF_TF4-36">
          <mxGeometry x="-0.1631" relative="1" as="geometry">
            <mxPoint x="-6" as="offset" />
          </mxGeometry>
        </mxCell>
        <mxCell id="VUDHwcCzOZzVsnuF_TF4-33" value="&lt;font style=&quot;font-size: 10px;&quot;&gt;add product&lt;/font&gt;" style="ellipse;whiteSpace=wrap;html=1;" vertex="1" parent="VUDHwcCzOZzVsnuF_TF4-3">
          <mxGeometry x="160" y="80" width="70" height="40" as="geometry" />
        </mxCell>
        <mxCell id="VUDHwcCzOZzVsnuF_TF4-15" style="rounded=0;orthogonalLoop=1;jettySize=auto;html=1;exitX=1;exitY=0.3333333333333333;exitDx=0;exitDy=0;exitPerimeter=0;entryX=0;entryY=0.5;entryDx=0;entryDy=0;" edge="1" parent="1" source="VUDHwcCzOZzVsnuF_TF4-4" target="VUDHwcCzOZzVsnuF_TF4-11">
          <mxGeometry relative="1" as="geometry" />
        </mxCell>
        <mxCell id="VUDHwcCzOZzVsnuF_TF4-26" style="rounded=0;orthogonalLoop=1;jettySize=auto;html=1;exitX=1;exitY=0.3333333333333333;exitDx=0;exitDy=0;exitPerimeter=0;" edge="1" parent="1" source="VUDHwcCzOZzVsnuF_TF4-4" target="VUDHwcCzOZzVsnuF_TF4-25">
          <mxGeometry relative="1" as="geometry" />
        </mxCell>
        <mxCell id="VUDHwcCzOZzVsnuF_TF4-28" style="rounded=0;orthogonalLoop=1;jettySize=auto;html=1;exitX=1;exitY=0.3333333333333333;exitDx=0;exitDy=0;exitPerimeter=0;entryX=0;entryY=0.5;entryDx=0;entryDy=0;" edge="1" parent="1" source="VUDHwcCzOZzVsnuF_TF4-4" target="VUDHwcCzOZzVsnuF_TF4-27">
          <mxGeometry relative="1" as="geometry" />
        </mxCell>
        <mxCell id="VUDHwcCzOZzVsnuF_TF4-4" value="customer" style="shape=umlActor;verticalLabelPosition=bottom;verticalAlign=top;html=1;outlineConnect=0;" vertex="1" parent="1">
          <mxGeometry x="130" y="420" width="30" height="50" as="geometry" />
        </mxCell>
        <mxCell id="VUDHwcCzOZzVsnuF_TF4-9" style="edgeStyle=orthogonalEdgeStyle;rounded=0;orthogonalLoop=1;jettySize=auto;html=1;" edge="1" parent="1" source="VUDHwcCzOZzVsnuF_TF4-5" target="VUDHwcCzOZzVsnuF_TF4-4">
          <mxGeometry relative="1" as="geometry">
            <Array as="points">
              <mxPoint x="120" y="500" />
              <mxPoint x="145" y="500" />
            </Array>
          </mxGeometry>
        </mxCell>
        <mxCell id="VUDHwcCzOZzVsnuF_TF4-5" value="new" style="shape=umlActor;verticalLabelPosition=bottom;verticalAlign=top;html=1;outlineConnect=0;" vertex="1" parent="1">
          <mxGeometry x="110" y="520" width="20" height="30" as="geometry" />
        </mxCell>
        <mxCell id="VUDHwcCzOZzVsnuF_TF4-10" style="edgeStyle=orthogonalEdgeStyle;rounded=0;orthogonalLoop=1;jettySize=auto;html=1;" edge="1" parent="1" source="VUDHwcCzOZzVsnuF_TF4-6" target="VUDHwcCzOZzVsnuF_TF4-4">
          <mxGeometry relative="1" as="geometry">
            <Array as="points">
              <mxPoint x="180" y="500" />
              <mxPoint x="145" y="500" />
            </Array>
          </mxGeometry>
        </mxCell>
        <mxCell id="VUDHwcCzOZzVsnuF_TF4-6" value="existing" style="shape=umlActor;verticalLabelPosition=bottom;verticalAlign=top;html=1;outlineConnect=0;" vertex="1" parent="1">
          <mxGeometry x="170" y="520" width="20" height="30" as="geometry" />
        </mxCell>
        <mxCell id="VUDHwcCzOZzVsnuF_TF4-24" style="rounded=0;orthogonalLoop=1;jettySize=auto;html=1;exitX=1;exitY=0.3333333333333333;exitDx=0;exitDy=0;exitPerimeter=0;entryX=0;entryY=0.5;entryDx=0;entryDy=0;" edge="1" parent="1" source="VUDHwcCzOZzVsnuF_TF4-4" target="VUDHwcCzOZzVsnuF_TF4-21">
          <mxGeometry relative="1" as="geometry" />
        </mxCell>
        <mxCell id="VUDHwcCzOZzVsnuF_TF4-30" style="rounded=0;orthogonalLoop=1;jettySize=auto;html=1;exitX=0;exitY=0.3333333333333333;exitDx=0;exitDy=0;exitPerimeter=0;entryX=1;entryY=0.5;entryDx=0;entryDy=0;" edge="1" parent="1" source="VUDHwcCzOZzVsnuF_TF4-29" target="VUDHwcCzOZzVsnuF_TF4-27">
          <mxGeometry relative="1" as="geometry" />
        </mxCell>
        <mxCell id="VUDHwcCzOZzVsnuF_TF4-29" value="Bank server" style="shape=umlActor;verticalLabelPosition=bottom;verticalAlign=top;html=1;outlineConnect=0;" vertex="1" parent="1">
          <mxGeometry x="500" y="500" width="30" height="50" as="geometry" />
        </mxCell>
        <mxCell id="VUDHwcCzOZzVsnuF_TF4-32" style="rounded=0;orthogonalLoop=1;jettySize=auto;html=1;exitX=1;exitY=0.3333333333333333;exitDx=0;exitDy=0;exitPerimeter=0;entryX=0;entryY=0.5;entryDx=0;entryDy=0;" edge="1" parent="1" source="VUDHwcCzOZzVsnuF_TF4-4" target="VUDHwcCzOZzVsnuF_TF4-31">
          <mxGeometry relative="1" as="geometry" />
        </mxCell>
      </root>
    </mxGraphModel>
  </diagram>
</mxfile>
